<?xml version="1.0" encoding="UTF-8"?>
<!DOCTYPE svg PUBLIC "-//W3C//DTD SVG 1.1//EN" "http://www.w3.org/Graphics/SVG/1.1/DTD/svg11.dtd">
<svg xmlns="http://www.w3.org/2000/svg" version="1.1" width="26px" height="25px" style="shape-rendering:geometricPrecision; text-rendering:geometricPrecision; image-rendering:optimizeQuality; fill-rule:evenodd; clip-rule:evenodd" xmlns:xlink="http://www.w3.org/1999/xlink">
<g><path style="opacity:0.984" fill="#fdf8c1" d="M 7.5,-0.5 C 10.8333,-0.5 14.1667,-0.5 17.5,-0.5C 20.7843,1.11698 23.4509,3.45031 25.5,6.5C 25.5,9.83333 25.5,13.1667 25.5,16.5C 23.034,20.3043 19.7007,22.971 15.5,24.5C 15.1667,24.5 14.8333,24.5 14.5,24.5C 14.5,21.1667 14.5,17.8333 14.5,14.5C 18.5,13.8333 18.5,13.1667 14.5,12.5C 14.5,10.8333 14.5,9.16667 14.5,7.5C 15.5,7.5 16.5,7.5 17.5,7.5C 17.5,6.5 17.5,5.5 17.5,4.5C 12.42,4.6202 10.0867,7.28687 10.5,12.5C 6.5,13.1667 6.5,13.8333 10.5,14.5C 10.5,17.8333 10.5,21.1667 10.5,24.5C 10.1667,24.5 9.83333,24.5 9.5,24.5C 5.29934,22.971 1.966,20.3043 -0.5,16.5C -0.5,13.1667 -0.5,9.83333 -0.5,6.5C 1.54906,3.45031 4.21573,1.11698 7.5,-0.5 Z"/></g>
</svg>
