<?xml version="1.0" encoding="UTF-8"?>
<!DOCTYPE svg PUBLIC "-//W3C//DTD SVG 1.1//EN" "http://www.w3.org/Graphics/SVG/1.1/DTD/svg11.dtd">
<svg xmlns="http://www.w3.org/2000/svg" version="1.1" width="26px" height="25px" style="shape-rendering:geometricPrecision; text-rendering:geometricPrecision; image-rendering:optimizeQuality; fill-rule:evenodd; clip-rule:evenodd" xmlns:xlink="http://www.w3.org/1999/xlink">
<g><path style="opacity:0.888" fill="#fdf8c1" d="M 2.5,-0.5 C 8.83333,-0.5 15.1667,-0.5 21.5,-0.5C 22.795,0.488369 24.1283,1.48837 25.5,2.5C 25.5,8.5 25.5,14.5 25.5,20.5C 23.8089,21.8637 22.1423,23.197 20.5,24.5C 15.1667,24.5 9.83333,24.5 4.5,24.5C 2.85774,23.197 1.19107,21.8637 -0.5,20.5C -0.5,14.5 -0.5,8.5 -0.5,2.5C 0.833333,1.83333 1.83333,0.833333 2.5,-0.5 Z M 17.5,6.5 C 8.55639,3.45709 4.88973,6.45709 6.5,15.5C 9.74045,18.8169 13.4071,19.3169 17.5,17C 19.6407,13.9973 19.9741,10.8307 18.5,7.5C 20.4109,7.4257 21.5776,6.4257 22,4.5C 22.8037,9.75132 22.637,14.918 21.5,20C 5.5563,26.1344 -0.610363,20.9678 3,4.5C 3.5,4 4,3.5 4.5,3C 10.9198,2.15619 15.2531,2.32286 17.5,3.5C 17.5,4.5 17.5,5.5 17.5,6.5 Z M 10.5,8.5 C 14.509,8.01365 16.3423,9.68031 16,13.5C 12.7224,16.514 10.2224,16.014 8.5,12C 8.9783,10.6974 9.64497,9.53069 10.5,8.5 Z"/></g>
<g><path style="opacity:0.927" fill="#fef9c1" d="M 17.5,6.5 C 17.5,7.16667 17.8333,7.5 18.5,7.5C 19.9741,10.8307 19.6407,13.9973 17.5,17C 13.4071,19.3169 9.74045,18.8169 6.5,15.5C 4.88973,6.45709 8.55639,3.45709 17.5,6.5 Z M 10.5,8.5 C 9.64497,9.53069 8.9783,10.6974 8.5,12C 10.2224,16.014 12.7224,16.514 16,13.5C 16.3423,9.68031 14.509,8.01365 10.5,8.5 Z"/></g>
</svg>
