<?xml version="1.0" encoding="UTF-8"?>
<!DOCTYPE svg PUBLIC "-//W3C//DTD SVG 1.1//EN" "http://www.w3.org/Graphics/SVG/1.1/DTD/svg11.dtd">
<svg xmlns="http://www.w3.org/2000/svg" version="1.1" width="54px" height="55px" style="shape-rendering:geometricPrecision; text-rendering:geometricPrecision; image-rendering:optimizeQuality; fill-rule:evenodd; clip-rule:evenodd" xmlns:xlink="http://www.w3.org/1999/xlink">
<g><path style="opacity:0.965" fill="#f8f9fa" d="M 19.5,-0.5 C 24.1667,-0.5 28.8333,-0.5 33.5,-0.5C 43.1925,3.19244 49.8591,9.85911 53.5,19.5C 53.5,24.1667 53.5,28.8333 53.5,33.5C 51.5294,33.1362 49.5294,32.8028 47.5,32.5C 45.5484,33.8136 43.715,34.4803 42,34.5C 41.2828,33.9558 40.7828,33.2891 40.5,32.5C 42.3687,28.2076 41.7021,27.2076 38.5,29.5C 38.5,29.1667 38.5,28.8333 38.5,28.5C 40.5,26.1667 42.5,23.8333 44.5,21.5C 46.2927,19.5739 47.2927,17.2406 47.5,14.5C 43.1018,14.2941 38.7685,14.6274 34.5,15.5C 33.8333,15.5 33.5,15.1667 33.5,14.5C 34.7383,14.19 34.7383,13.69 33.5,13C 23.533,9.65071 16.533,12.8174 12.5,22.5C 11.7321,23.2625 11.2321,24.2625 11,25.5C 7.95139,21.9574 5.11806,18.2907 2.5,14.5C 6.01521,6.98042 11.6819,1.98042 19.5,-0.5 Z"/></g>
<g><path style="opacity:1" fill="#607d87" d="M 33.5,14.5 C 27.9822,12.4378 22.9822,13.2712 18.5,17C 16.7888,19.5888 14.9555,22.0888 13,24.5C 12.5357,23.9056 12.369,23.2389 12.5,22.5C 16.533,12.8174 23.533,9.65071 33.5,13C 34.7383,13.69 34.7383,14.19 33.5,14.5 Z"/></g>
<g><path style="opacity:1" fill="#4a6670" d="M 44.5,21.5 C 44.5,20.8333 44.1667,20.5 43.5,20.5C 44.2341,19.2921 44.5674,17.9587 44.5,16.5C 43.1667,16.5 41.8333,16.5 40.5,16.5C 40.5,17.5 40.5,18.5 40.5,19.5C 39.8333,19.8333 39.1667,20.1667 38.5,20.5C 38.5299,19.5028 38.0299,18.8361 37,18.5C 25.6069,24.3686 24.7736,23.3686 34.5,15.5C 38.7685,14.6274 43.1018,14.2941 47.5,14.5C 47.2927,17.2406 46.2927,19.5739 44.5,21.5 Z"/></g>
<g><path style="opacity:1" fill="#eceff1" d="M 43.5,20.5 C 42.209,20.7373 41.209,20.404 40.5,19.5C 40.5,18.5 40.5,17.5 40.5,16.5C 41.8333,16.5 43.1667,16.5 44.5,16.5C 44.5674,17.9587 44.2341,19.2921 43.5,20.5 Z"/></g>
<g><path style="opacity:1" fill="#2d4853" d="M 40.5,19.5 C 41.209,20.404 42.209,20.7373 43.5,20.5C 44.1667,20.5 44.5,20.8333 44.5,21.5C 42.5,23.8333 40.5,26.1667 38.5,28.5C 36.8333,29.1667 35.1667,29.8333 33.5,30.5C 34.4867,28.5266 35.4867,26.5266 36.5,24.5C 36.3764,23.8933 36.0431,23.56 35.5,23.5C 35.5,22.8333 35.5,22.1667 35.5,21.5C 36.391,20.8902 37.391,20.5569 38.5,20.5C 39.1667,20.1667 39.8333,19.8333 40.5,19.5 Z"/></g>
<g><path style="opacity:0.981" fill="#e8ecee" d="M 33.5,14.5 C 33.5,15.1667 33.8333,15.5 34.5,15.5C 24.7736,23.3686 25.6069,24.3686 37,18.5C 38.0299,18.8361 38.5299,19.5028 38.5,20.5C 37.391,20.5569 36.391,20.8902 35.5,21.5C 26.0602,25.0542 17.0602,29.3875 8.5,34.5C 17.6145,31.7983 26.6145,28.1316 35.5,23.5C 36.0431,23.56 36.3764,23.8933 36.5,24.5C 35.4867,26.5266 34.4867,28.5266 33.5,30.5C 32.8333,30.5 32.1667,30.5 31.5,30.5C 28.3362,28.8094 26.3362,29.8094 25.5,33.5C 24.8333,33.1667 24.1667,32.8333 23.5,32.5C 23.44,31.9569 23.1067,31.6236 22.5,31.5C 19.9504,32.9416 17.2837,34.1083 14.5,35C 13.244,35.4169 12.5774,36.2502 12.5,37.5C 13.1667,38.1667 13.8333,38.8333 14.5,39.5C 14.5,39.8333 14.5,40.1667 14.5,40.5C 9.19426,41.2048 4.52759,39.5381 0.5,35.5C 0.5,34.8333 0.166667,34.5 -0.5,34.5C -0.5,29.5 -0.5,24.5 -0.5,19.5C 0.312714,17.7392 1.31271,16.0725 2.5,14.5C 5.11806,18.2907 7.95139,21.9574 11,25.5C 11.2321,24.2625 11.7321,23.2625 12.5,22.5C 12.369,23.2389 12.5357,23.9056 13,24.5C 14.9555,22.0888 16.7888,19.5888 18.5,17C 22.9822,13.2712 27.9822,12.4378 33.5,14.5 Z"/></g>
<g><path style="opacity:1" fill="#506d77" d="M 19.5,23.5 C 20.8734,23.3433 22.2068,23.51 23.5,24C 18.2091,26.8943 12.7091,29.3943 7,31.5C 6.5,31.1667 6,30.8333 5.5,30.5C 10.2274,28.1363 14.8941,25.8029 19.5,23.5 Z"/></g>
<g><path style="opacity:1" fill="#43616a" d="M 18.5,19.5 C 19.675,19.281 20.675,19.6143 21.5,20.5C 19.9483,21.7979 18.9483,21.4646 18.5,19.5 Z"/></g>
<g><path style="opacity:1" fill="#3c5a63" d="M 24.5,15.5 C 26.9118,15.6941 27.9118,17.0274 27.5,19.5C 26.1667,19.5 24.8333,19.5 23.5,19.5C 23.4326,18.0413 23.7659,16.7079 24.5,15.5 Z"/></g>
<g><path style="opacity:1" fill="#48646e" d="M 35.5,21.5 C 35.5,22.1667 35.5,22.8333 35.5,23.5C 26.6145,28.1316 17.6145,31.7983 8.5,34.5C 17.0602,29.3875 26.0602,25.0542 35.5,21.5 Z"/></g>
<g><path style="opacity:1" fill="#37515b" d="M 31.5,30.5 C 33.0685,35.0819 31.4019,36.5819 26.5,35C 25.944,34.6174 25.6107,34.1174 25.5,33.5C 26.3362,29.8094 28.3362,28.8094 31.5,30.5 Z"/></g>
<g><path style="opacity:1" fill="#405a63" d="M 23.5,32.5 C 20.3552,35.1128 16.6886,36.7795 12.5,37.5C 12.5774,36.2502 13.244,35.4169 14.5,35C 17.2837,34.1083 19.9504,32.9416 22.5,31.5C 23.1067,31.6236 23.44,31.9569 23.5,32.5 Z"/></g>
<g><path style="opacity:0.98" fill="#e3e7e9" d="M 0.5,35.5 C 4.52759,39.5381 9.19426,41.2048 14.5,40.5C 15.6316,41.3543 16.965,41.3543 18.5,40.5C 18.3691,41.3764 18.7025,42.0431 19.5,42.5C 21.1667,43.1667 22.8333,43.8333 24.5,44.5C 28.0965,44.1021 31.7632,44.1021 35.5,44.5C 40.5075,43.1637 45.5075,41.8303 50.5,40.5C 46.3032,47.5859 40.3032,52.2525 32.5,54.5C 28.5,54.5 24.5,54.5 20.5,54.5C 10.635,51.6374 3.96831,45.304 0.5,35.5 Z"/></g>
<g><path style="opacity:1" fill="#39555f" d="M 40.5,32.5 C 37.9533,36.7143 34.2866,39.381 29.5,40.5C 27.901,40.7678 26.5676,40.4345 25.5,39.5C 31.9879,38.7771 36.3212,35.4438 38.5,29.5C 41.7021,27.2076 42.3687,28.2076 40.5,32.5 Z"/></g>
<g><path style="opacity:1" fill="#334e56" d="M 18.5,40.5 C 16.965,41.3543 15.6316,41.3543 14.5,40.5C 14.5,40.1667 14.5,39.8333 14.5,39.5C 17.1505,38.5103 19.8172,37.5103 22.5,36.5C 23.1667,36.6667 23.8333,36.8333 24.5,37C 22.6365,38.4307 20.6365,39.5974 18.5,40.5 Z"/></g>
<g><path style="opacity:0.998" fill="#e4e9eb" d="M 38.5,28.5 C 38.5,28.8333 38.5,29.1667 38.5,29.5C 36.3212,35.4438 31.9879,38.7771 25.5,39.5C 24.7109,39.7828 24.0442,40.2828 23.5,41C 25.7116,41.7891 27.7116,41.6225 29.5,40.5C 34.2866,39.381 37.9533,36.7143 40.5,32.5C 40.7828,33.2891 41.2828,33.9558 42,34.5C 43.715,34.4803 45.5484,33.8136 47.5,32.5C 49.5294,32.8028 51.5294,33.1362 53.5,33.5C 53.5,33.8333 53.5,34.1667 53.5,34.5C 52.5139,36.4261 51.5139,38.4261 50.5,40.5C 45.5075,41.8303 40.5075,43.1637 35.5,44.5C 31.7632,44.1021 28.0965,44.1021 24.5,44.5C 22.8333,43.8333 21.1667,43.1667 19.5,42.5C 18.7025,42.0431 18.3691,41.3764 18.5,40.5C 20.6365,39.5974 22.6365,38.4307 24.5,37C 23.8333,36.8333 23.1667,36.6667 22.5,36.5C 19.8172,37.5103 17.1505,38.5103 14.5,39.5C 13.8333,38.8333 13.1667,38.1667 12.5,37.5C 16.6886,36.7795 20.3552,35.1128 23.5,32.5C 24.1667,32.8333 24.8333,33.1667 25.5,33.5C 25.6107,34.1174 25.944,34.6174 26.5,35C 31.4019,36.5819 33.0685,35.0819 31.5,30.5C 32.1667,30.5 32.8333,30.5 33.5,30.5C 35.1667,29.8333 36.8333,29.1667 38.5,28.5 Z"/></g>
<g><path style="opacity:1" fill="#75868d" d="M 25.5,39.5 C 26.5676,40.4345 27.901,40.7678 29.5,40.5C 27.7116,41.6225 25.7116,41.7891 23.5,41C 24.0442,40.2828 24.7109,39.7828 25.5,39.5 Z"/></g>
</svg>
