<?xml version="1.0" encoding="UTF-8"?>
<!DOCTYPE svg PUBLIC "-//W3C//DTD SVG 1.1//EN" "http://www.w3.org/Graphics/SVG/1.1/DTD/svg11.dtd">
<svg xmlns="http://www.w3.org/2000/svg" version="1.1" width="26px" height="23px" style="shape-rendering:geometricPrecision; text-rendering:geometricPrecision; image-rendering:optimizeQuality; fill-rule:evenodd; clip-rule:evenodd" xmlns:xlink="http://www.w3.org/1999/xlink">
<g><path style="opacity:0.98" fill="#fdf8c1" d="M 14.5,-0.5 C 16.5,-0.5 18.5,-0.5 20.5,-0.5C 21.5,0.833333 22.5,0.833333 23.5,-0.5C 24.1667,-0.5 24.8333,-0.5 25.5,-0.5C 25.5,-0.166667 25.5,0.166667 25.5,0.5C 24.1667,0.833333 24.1667,1.16667 25.5,1.5C 25.5,2.16667 25.5,2.83333 25.5,3.5C 24.8826,3.61071 24.3826,3.94404 24,4.5C 21.9271,19.6153 13.7604,24.6153 -0.5,19.5C -0.5,19.1667 -0.5,18.8333 -0.5,18.5C 1.7505,18.8186 3.7505,18.3186 5.5,17C 4.58377,16.6258 3.75044,16.1258 3,15.5C 2.78369,13.6161 2.11702,11.9494 1,10.5C 0.176379,7.11771 0.343046,3.78437 1.5,0.5C 3.93793,2.80363 6.77126,4.47029 10,5.5C 11.743,3.68 13.243,1.68 14.5,-0.5 Z"/></g>
</svg>
