<?xml version="1.0" encoding="UTF-8"?>
<!DOCTYPE svg PUBLIC "-//W3C//DTD SVG 1.1//EN" "http://www.w3.org/Graphics/SVG/1.1/DTD/svg11.dtd">
<svg xmlns="http://www.w3.org/2000/svg" version="1.1" width="29px" height="20px" style="shape-rendering:geometricPrecision; text-rendering:geometricPrecision; image-rendering:optimizeQuality; fill-rule:evenodd; clip-rule:evenodd" xmlns:xlink="http://www.w3.org/1999/xlink">
<g><path style="opacity:0.989" fill="#fdf8c1" d="M 1.5,-0.5 C 9.83333,-0.5 18.1667,-0.5 26.5,-0.5C 26.8333,0.5 27.5,1.16667 28.5,1.5C 28.5,6.5 28.5,11.5 28.5,16.5C 27.2597,17.6588 25.9264,18.6588 24.5,19.5C 17.8333,19.5 11.1667,19.5 4.5,19.5C 2.97237,18.6908 1.3057,18.0241 -0.5,17.5C -0.5,12.1667 -0.5,6.83333 -0.5,1.5C 0.5,1.16667 1.16667,0.5 1.5,-0.5 Z M 11.5,6.5 C 13.5932,7.04469 15.5932,7.87803 17.5,9C 15.7513,10.2915 13.918,11.4582 12,12.5C 11.5045,10.5273 11.3379,8.5273 11.5,6.5 Z"/></g>
</svg>
